<svg width="223" height="33" viewBox="0 0 223 33" fill="none" xmlns="http://www.w3.org/2000/svg">
<path d="M25.8018 23.6741C24.909 24.442 23.909 25.0313 22.8018 25.442C21.6947 25.8527 20.5474 26.058 19.3599 26.058C18.4491 26.058 17.5697 25.9375 16.7215 25.6964C15.8822 25.4643 15.092 25.1339 14.3509 24.7054C13.6188 24.2679 12.9491 23.7455 12.342 23.1384C11.7349 22.5313 11.2125 21.8616 10.775 21.1295C10.3465 20.3884 10.0116 19.5982 9.77058 18.7589C9.53843 17.9107 9.42236 17.0313 9.42236 16.1205C9.42236 15.2098 9.53843 14.3304 9.77058 13.4822C10.0116 12.6339 10.3465 11.8438 10.775 11.1116C11.2125 10.3705 11.7349 9.69644 12.342 9.08929C12.9491 8.48215 13.6188 7.96429 14.3509 7.53572C15.092 7.09822 15.8822 6.7634 16.7215 6.53126C17.5697 6.29019 18.4491 6.16965 19.3599 6.16965C20.5474 6.16965 21.6947 6.37501 22.8018 6.78572C23.909 7.18751 24.909 7.77679 25.8018 8.55358L23.7661 11.9018C23.2036 11.2947 22.5384 10.8304 21.7706 10.5089C21.0027 10.1786 20.1991 10.0134 19.3599 10.0134C18.5116 10.0134 17.717 10.1741 16.9759 10.4955C16.2349 10.817 15.5875 11.2545 15.034 11.808C14.4804 12.3527 14.0429 13 13.7215 13.75C13.4 14.4911 13.2393 15.2813 13.2393 16.1205C13.2393 16.9598 13.4 17.75 13.7215 18.4911C14.0429 19.2232 14.4804 19.8661 15.034 20.4197C15.5875 20.9732 16.2349 21.4107 16.9759 21.7322C17.717 22.0536 18.5116 22.2143 19.3599 22.2143C20.1991 22.2143 21.0027 22.0536 21.7706 21.7322C22.5384 21.4018 23.2036 20.933 23.7661 20.3259L25.8018 23.6741Z" fill="#F12424"/>
<path d="M31.3331 25.6429H27.65V5.59376H31.3331V25.6429Z" fill="#F12424"/>
<path d="M38.4447 7.40179C38.4447 7.74108 38.3777 8.05804 38.2438 8.35269C38.1188 8.64733 37.9447 8.90626 37.7215 9.12947C37.4983 9.34376 37.2349 9.51787 36.9313 9.65179C36.6367 9.77679 36.3197 9.83929 35.9804 9.83929C35.6411 9.83929 35.3197 9.77679 35.0161 9.65179C34.7215 9.51787 34.4625 9.34376 34.2393 9.12947C34.025 8.90626 33.8509 8.64733 33.717 8.35269C33.592 8.05804 33.5295 7.74108 33.5295 7.40179C33.5295 7.07144 33.592 6.75894 33.717 6.46429C33.8509 6.16072 34.025 5.90179 34.2393 5.68751C34.4625 5.46429 34.7215 5.29019 35.0161 5.16519C35.3197 5.03126 35.6411 4.96429 35.9804 4.96429C36.3197 4.96429 36.6367 5.03126 36.9313 5.16519C37.2349 5.29019 37.4983 5.46429 37.7215 5.68751C37.9447 5.90179 38.1188 6.16072 38.2438 6.46429C38.3777 6.75894 38.4447 7.07144 38.4447 7.40179ZM37.8152 25.6429H34.1322V11.2991H37.8152V25.6429Z" fill="#F12424"/>
<path d="M44.2974 31.1072H40.6143V11.2991H41.4983L42.9581 13.0268C43.2884 12.7143 43.65 12.4197 44.0429 12.1429C44.4358 11.8661 44.842 11.6295 45.2617 11.433C45.6902 11.2277 46.1322 11.067 46.5875 10.9509C47.0429 10.8348 47.5027 10.7768 47.967 10.7768C48.9759 10.7768 49.9224 10.9598 50.8063 11.3259C51.6992 11.683 52.4759 12.192 53.1367 12.8527C53.8063 13.5134 54.3331 14.3125 54.717 15.25C55.1009 16.1786 55.2929 17.2098 55.2929 18.3438C55.2929 19.5223 55.1009 20.5848 54.717 21.5313C54.3331 22.4688 53.8063 23.2679 53.1367 23.9286C52.4759 24.5804 51.6992 25.0804 50.8063 25.4286C49.9224 25.7768 48.9759 25.9509 47.967 25.9509C47.6456 25.9509 47.3242 25.9152 47.0027 25.8438C46.6902 25.7723 46.3777 25.6786 46.0652 25.5625C45.7617 25.4375 45.4581 25.2991 45.1545 25.1473C44.8599 24.9955 44.5742 24.8393 44.2974 24.6786V31.1072ZM51.6233 18.3438C51.6233 17.7366 51.525 17.192 51.3286 16.7098C51.1411 16.2277 50.8822 15.8214 50.5518 15.4911C50.2215 15.1518 49.8331 14.8929 49.3867 14.7143C48.9402 14.5357 48.467 14.4464 47.967 14.4464C47.467 14.4464 46.9938 14.5357 46.5474 14.7143C46.1099 14.8929 45.7259 15.1518 45.3956 15.4911C45.0652 15.8214 44.8018 16.2277 44.6054 16.7098C44.4179 17.192 44.3242 17.7366 44.3242 18.3438C44.3242 18.9241 44.4179 19.4554 44.6054 19.9375C44.8018 20.4197 45.0652 20.8304 45.3956 21.1697C45.7259 21.5089 46.1099 21.7723 46.5474 21.9598C46.9938 22.1473 47.467 22.2411 47.967 22.2411C48.467 22.2411 48.9402 22.1473 49.3867 21.9598C49.8331 21.7723 50.2215 21.5089 50.5518 21.1697C50.8822 20.8304 51.1411 20.4197 51.3286 19.9375C51.525 19.4554 51.6233 18.9241 51.6233 18.3438Z" fill="#F12424"/>
<path fill-rule="evenodd" clip-rule="evenodd" d="M53.9429 0.5H60.8C63.5772 0.5 65.8286 2.75137 65.8286 5.52857V27.4714C65.8286 30.2486 63.5772 32.5 60.8 32.5H53.9429V29.7571H60.8C62.0624 29.7571 63.0857 28.7338 63.0857 27.4714V5.52857C63.0857 4.26621 62.0624 3.24286 60.8 3.24286H53.9429V0.5Z" fill="#F12424"/>
<path fill-rule="evenodd" clip-rule="evenodd" d="M11.8857 0.5H5.0286C2.2514 0.5 2.76566e-05 2.75137 2.76566e-05 5.52857V27.4714C2.76566e-05 30.2486 2.2514 32.5 5.0286 32.5H11.8857V29.7571H5.0286C3.76623 29.7571 2.74288 28.7338 2.74288 27.4714V5.52857C2.74288 4.26621 3.76623 3.24286 5.0286 3.24286H11.8857V0.5Z" fill="#F12424"/>
<path d="M82.3496 24.7286C88.0548 24.7286 91.9222 20.9709 91.9222 15.5949C91.9222 10.2189 88.0548 6.43372 82.3496 6.43372H75.5474V24.7286H82.3496ZM78.7565 9.25886H82.3496C86.4365 9.25886 88.6308 12.0566 88.6308 15.5949C88.6308 19.0509 86.3268 21.9034 82.3496 21.9034H78.7565V9.25886Z" fill="black"/>
<path d="M100.918 25.0577C105.169 25.0577 107.747 21.9034 107.747 18.0909C107.747 14.3057 105.169 11.1514 100.918 11.1514C96.7211 11.1514 94.1154 14.3057 94.1154 18.0909C94.1154 21.9034 96.7211 25.0577 100.918 25.0577ZM100.918 22.5069C98.4766 22.5069 97.1051 20.4497 97.1051 18.0909C97.1051 15.7594 98.4766 13.7023 100.918 13.7023C103.386 13.7023 104.758 15.7594 104.758 18.0909C104.758 20.4497 103.386 22.5069 100.918 22.5069Z" fill="black"/>
<path d="M125.226 24.7286L129.34 11.4806H126.351L123.553 21.108L120.399 11.4806H117.875L114.721 21.108L111.923 11.4806H108.934L113.048 24.7286H116.065L119.137 15.0189L122.209 24.7286H125.226Z" fill="black"/>
<path d="M143.162 24.7286V15.4029C143.162 12.6874 141.736 11.1514 138.883 11.1514C136.798 11.1514 135.098 12.2486 134.22 13.2909V11.4806H131.34V24.7286H134.22V15.4851C134.878 14.58 136.14 13.7023 137.621 13.7023C139.24 13.7023 140.282 14.388 140.282 16.4451V24.7286H143.162Z" fill="black"/>
<path d="M149.783 24.7286V6.43372H146.903V24.7286H149.783Z" fill="black"/>
<path d="M159.498 25.0577C163.75 25.0577 166.328 21.9034 166.328 18.0909C166.328 14.3057 163.75 11.1514 159.498 11.1514C155.302 11.1514 152.696 14.3057 152.696 18.0909C152.696 21.9034 155.302 25.0577 159.498 25.0577ZM159.498 22.5069C157.057 22.5069 155.686 20.4497 155.686 18.0909C155.686 15.7594 157.057 13.7023 159.498 13.7023C161.967 13.7023 163.338 15.7594 163.338 18.0909C163.338 20.4497 161.967 22.5069 159.498 22.5069Z" fill="black"/>
<path d="M180.213 24.7286V15.9514C180.213 12.3857 177.635 11.1514 174.7 11.1514C172.588 11.1514 170.668 11.8371 169.132 13.2909L170.312 15.2931C171.464 14.1686 172.753 13.62 174.234 13.62C176.072 13.62 177.333 14.5526 177.333 16.0886V18.0634C176.373 16.9389 174.837 16.3629 173.054 16.3629C170.888 16.3629 168.446 17.6246 168.446 20.6691C168.446 23.604 170.888 25.0577 173.054 25.0577C174.81 25.0577 176.346 24.4269 177.333 23.3023V24.7286H180.213ZM177.333 21.7114C176.675 22.6166 175.441 23.0829 174.179 23.0829C172.561 23.0829 171.354 22.1503 171.354 20.724C171.354 19.2703 172.561 18.3377 174.179 18.3377C175.441 18.3377 176.675 18.804 177.333 19.7091V21.7114Z" fill="black"/>
<path d="M196.153 24.7286V6.43372H193.273V13.3183C192.203 11.9194 190.667 11.1514 189.022 11.1514C185.593 11.1514 183.124 13.8394 183.124 18.1183C183.124 22.4794 185.62 25.0577 189.022 25.0577C190.722 25.0577 192.258 24.2349 193.273 22.9183V24.7286H196.153ZM193.273 20.7514C192.615 21.7389 191.216 22.5069 189.844 22.5069C187.568 22.5069 186.114 20.6691 186.114 18.1183C186.114 15.54 187.568 13.7023 189.844 13.7023C191.216 13.7023 192.615 14.4977 193.273 15.4851V20.7514Z" fill="black"/>
<path d="M199.062 18.0909C199.062 22.2874 202.024 25.0577 206.001 25.0577C208.113 25.0577 210.061 24.3994 211.377 23.1377L210.061 21.2451C209.128 22.1777 207.592 22.6989 206.303 22.6989C203.807 22.6989 202.298 21.0531 202.079 19.0509H212.31V18.3651C212.31 14.196 209.759 11.1514 205.782 11.1514C201.86 11.1514 199.062 14.2509 199.062 18.0909ZM205.782 13.5103C208.388 13.5103 209.457 15.4577 209.512 17.0211H202.052C202.189 15.4029 203.313 13.5103 205.782 13.5103Z" fill="black"/>
<path d="M218.033 24.7286V15.7046C218.609 14.772 220.227 13.9491 221.434 13.9491C221.79 13.9491 222.092 13.9766 222.339 14.0314V11.1789C220.611 11.1789 219.02 12.1663 218.033 13.428V11.4806H215.153V24.7286H218.033Z" fill="black"/>
</svg>
