<svg width="96" height="96" viewBox="0 0 96 96" fill="none" xmlns="http://www.w3.org/2000/svg">
<path fill-rule="evenodd" clip-rule="evenodd" d="M74.9728 6.72295C75.2968 6.56642 75.5866 6.50247 75.8426 6.50247C76.0931 6.50247 76.6805 6.6505 77.6538 7.2227C78.5756 7.76461 79.6598 8.57631 80.8486 9.61544C83.2218 11.6899 85.8671 14.5429 88.265 17.5812C90.666 20.6236 92.7645 23.7831 94.0811 26.4553C94.7416 27.796 95.1726 28.949 95.3669 29.8627C95.5722 30.8284 95.4547 31.2501 95.3942 31.3632C93.2246 35.414 89.2178 39.2931 85.2354 41.7978C83.25 43.0465 81.3579 43.8977 79.7954 44.2768C78.1601 44.6736 77.2617 44.4707 76.8648 44.1884C75.2082 43.01 74.6469 41.822 74.4278 40.5102C74.3085 39.7958 74.2877 39.0119 74.3056 38.0953C74.3117 37.7837 74.3234 37.4344 74.3357 37.0662L74.3357 37.0654C74.3568 36.4361 74.3796 35.7517 74.3796 35.106C74.3796 34.1388 73.5923 33.3548 72.621 33.3548C71.6498 33.3548 70.8624 34.1388 70.8624 35.106C70.8624 35.7169 70.8435 36.2666 70.8239 36.8357V36.8359L70.8238 36.8372C70.8107 37.2172 70.7973 37.6059 70.7891 38.0271C70.7699 39.0077 70.7851 40.0481 70.9583 41.0848C71.3242 43.2756 72.3737 45.2981 74.8205 47.0385C76.4753 48.2155 78.6544 48.1586 80.628 47.6797C82.6742 47.1833 84.9222 46.1373 87.1135 44.7591C87.4273 44.5618 87.7417 44.3565 88.056 44.1436C88.3216 46.0175 88.459 47.9326 88.459 49.8798C88.459 72.2473 70.3266 90.3798 47.959 90.3798C25.5915 90.3798 7.45904 72.2473 7.45904 49.8798C7.45904 47.915 7.59896 45.9829 7.86936 44.0929C8.20848 44.3239 8.54784 44.5461 8.88648 44.7591C11.0778 46.1373 13.3258 47.1833 15.372 47.6797C17.3456 48.1586 19.5247 48.2155 21.1795 47.0385C23.6263 45.2981 24.6758 43.2756 25.0417 41.0848C25.2149 40.0481 25.2301 39.0077 25.2109 38.0271C25.2026 37.6054 25.1892 37.2163 25.1761 36.8359L25.1761 36.8358C25.1565 36.2667 25.1376 35.7169 25.1376 35.106C25.1376 34.1388 24.3502 33.3548 23.379 33.3548C22.4077 33.3548 21.6204 34.1388 21.6204 35.106C21.6204 35.752 21.6432 36.4367 21.6643 37.0662C21.6766 37.4344 21.6883 37.7837 21.6944 38.0953C21.7123 39.0119 21.6915 39.7958 21.5722 40.5102C21.3531 41.822 20.7918 43.01 19.1352 44.1884C18.7383 44.4707 17.8399 44.6736 16.2046 44.2768C14.6421 43.8977 12.75 43.0465 10.7646 41.7978C6.78222 39.2931 2.77535 35.414 0.605834 31.3632C0.545292 31.2501 0.427776 30.8284 0.633083 29.8627C0.827357 28.949 1.25841 27.796 1.91894 26.4553C3.2355 23.7831 5.33403 20.6236 7.73504 17.5812C10.1329 14.5429 12.7782 11.6899 15.1514 9.61544C16.3402 8.57631 17.4244 7.76461 18.3462 7.2227C19.3195 6.6505 19.9069 6.50247 20.1574 6.50247C20.6879 6.50247 21.3629 6.77694 22.1876 7.58071C23.0044 8.37676 23.8029 9.53733 24.5424 10.9071C26.0175 13.6395 27.0729 16.8544 27.5403 18.6231C27.7874 19.5584 28.7492 20.1171 29.6885 19.871C30.6278 19.6248 31.1888 18.667 30.9417 17.7317C30.6772 16.731 30.2425 15.3075 29.6549 13.7424C35.1524 10.9523 41.3721 9.37981 47.959 9.37981C54.5735 9.37981 60.8176 10.9655 66.3319 13.7774C65.751 15.3287 65.3208 16.7384 65.0583 17.7317C64.8112 18.667 65.3722 19.6248 66.3115 19.871C67.2507 20.1171 68.2126 19.5584 68.4597 18.6231C68.6699 17.8276 68.9991 16.7396 69.4319 15.5344C69.4979 15.5758 69.5637 15.6173 69.6295 15.659C70.4553 12.8456 72.3052 8.53098 74.9728 6.72295Z" fill="#F357A1"/>
<path fill-rule="evenodd" clip-rule="evenodd" d="M70 65.1493C70 72 60.1503 72 48 72C35.8497 72 26 72 26 65.1493C26 54.0211 35.8497 45 48 45C60.1503 45 70 54.0211 70 65.1493ZM45.0909 60.0946C45.0909 63.6864 42.7262 66.5982 39.8092 66.5982C36.8922 66.5982 34.5275 63.6864 34.5275 60.0946C34.5275 56.5027 36.8922 53.5909 39.8092 53.5909C42.7262 53.5909 45.0909 56.5027 45.0909 60.0946ZM55.6452 66.5982C58.5623 66.5982 60.927 63.6864 60.927 60.0946C60.927 56.5027 58.5623 53.5909 55.6452 53.5909C52.7282 53.5909 50.3635 56.5027 50.3635 60.0946C50.3635 63.6864 52.7282 66.5982 55.6452 66.5982Z" fill="white" fill-opacity="0.7"/>
</svg>
